<?xml version="1.0" encoding="iso-8859-1"?>
<!-- Generator: Adobe Illustrator 19.0.0, SVG Export Plug-In . SVG Version: 6.00 Build 0)  -->
<svg version="1.1" id="Capa_1" xmlns="http://www.w3.org/2000/svg" xmlns:xlink="http://www.w3.org/1999/xlink" x="0px" y="0px"
	 viewBox="0 0 512 512" style="enable-background:new 0 0 512 512;" xml:space="preserve">
<path style="fill:#E59F23;" d="M314.336,126.19L209.163,49.693c-5.277-3.838-12.426-3.838-17.703,0L6.197,184.441
	C2.303,187.273,0,191.797,0,196.611v253.524c0,8.311,6.738,15.049,15.049,15.049h370.525c8.311,0,15.049-6.737,15.049-15.048
	V307.989C306.666,307.989,255.256,198.493,314.336,126.19z"/>
<path style="fill:#D38B18;" d="M20.605,450.136V203.823c0-4.814,2.303-9.338,6.197-12.17L212.065,56.905
	c1.279-0.93,2.669-1.63,4.114-2.109l-7.016-5.103c-5.277-3.838-12.426-3.838-17.703,0L6.197,184.441
	C2.304,187.273,0,191.797,0,196.611v253.524c0,8.311,6.738,15.049,15.049,15.049h20.605
	C27.343,465.185,20.605,458.447,20.605,450.136z"/>
<path style="fill:#FFC850;" d="M192.773,318.071L15.049,465.185h370.525L207.85,318.071
	C203.476,314.451,197.146,314.451,192.773,318.071z"/>
<g>
	<path style="fill:#F9B428;" d="M15.049,465.185h20.605c-5.22,0-9.817-2.66-12.516-6.696L15.049,465.185L15.049,465.185z"/>
	<path style="fill:#F9B428;" d="M0,196.611v253.524c0,8.311,6.738,15.049,15.049,15.049l171.984-142.362L0,196.611z"/>
</g>
<path style="fill:#E59F23;" d="M15.049,465.185l8.089-6.696c-1.598-2.39-2.533-5.262-2.533-8.353v-239.62L0,196.611v253.524
	C0,458.447,6.738,465.185,15.049,465.185z"/>
<path style="fill:#F9B428;" d="M308.29,258.917l-94.701,63.905l171.984,142.362l0,0c3.182,0,6.129-0.994,8.56-2.679
	c3.918-2.717,6.489-7.241,6.489-12.37V307.989C362.192,307.989,328.309,288.525,308.29,258.917z"/>
<circle style="fill:#FF5050;" cx="399.55" cy="196.61" r="112.45"/>
<path style="fill:#ED3A3A;" d="M307.706,196.611c0-58.63,44.873-106.772,102.147-111.975c-3.394-0.308-6.829-0.475-10.302-0.475
	c-62.104,0-112.45,50.345-112.45,112.45c0,62.104,50.345,112.449,112.45,112.449c3.474,0,6.909-0.166,10.302-0.474
	C352.579,303.383,307.706,255.242,307.706,196.611z"/>
<path style="fill:#E4EAF8;" d="M395.818,117.474c-40.424,1.86-73.546,34.982-75.406,75.406
	c-2.084,45.309,33.89,82.955,79.138,82.955c9.952,0,19.66-1.824,28.853-5.42c3.974-1.555,5.935-6.037,4.381-10.011
	s-6.036-5.935-10.011-4.381c-7.392,2.892-15.205,4.358-23.223,4.358c-36.201,0-65.389-30.079-63.7-66.791
	c1.497-32.529,28.15-59.182,60.678-60.679c36.493-1.685,66.791,27.29,66.791,63.7c0,21.829-6.179,22.826-12.282,23.387
	c-9.24-0.154-12.529-6.987-12.529-12.847v-10.655c0-21.482-17.477-38.959-38.959-38.959c-21.482,0-38.959,17.477-38.959,38.959
	s17.477,38.959,38.959,38.959c11.072,0,21.072-4.65,28.171-12.091c4.934,7.461,13.411,12.091,23.638,12.091
	c0.232,0,0.464-0.011,0.696-0.031c23.682-2.141,26.719-21.867,26.719-38.812C478.774,151.542,441.306,115.393,395.818,117.474z
	 M399.551,220.001c-12.961,0-23.505-10.544-23.505-23.505s10.544-23.506,23.505-23.506s23.505,10.544,23.505,23.506
	C423.056,209.457,412.511,220.001,399.551,220.001z"/>
<g>
</g>
<g>
</g>
<g>
</g>
<g>
</g>
<g>
</g>
<g>
</g>
<g>
</g>
<g>
</g>
<g>
</g>
<g>
</g>
<g>
</g>
<g>
</g>
<g>
</g>
<g>
</g>
<g>
</g>
</svg>
